<svg xmlns="http://www.w3.org/2000/svg" width="512" height="512" viewBox="0 0 512 512">
  <defs>
    <linearGradient id="sky" x1="0" y1="0" x2="0" y2="1">
      <stop offset="0" stop-color="#ffd6f5"/>
      <stop offset="1" stop-color="#c9e7ff"/>
    </linearGradient>
    <linearGradient id="horn" x1="0" y1="0" x2="1" y2="1">
      <stop offset="0" stop-color="#fff3b0"/>
      <stop offset="1" stop-color="#ffb703"/>
    </linearGradient>
    <linearGradient id="mane" x1="0" y1="0" x2="1" y2="1">
      <stop offset="0" stop-color="#ff7ad9"/>
      <stop offset="0.5" stop-color="#a06bff"/>
      <stop offset="1" stop-color="#6ad1ff"/>
    </linearGradient>
  </defs>
  <rect width="512" height="512" rx="112" fill="url(#sky)"/>
  <!-- cheek blush -->
  <circle cx="196" cy="300" r="22" fill="#ffb3d9" opacity="0.7"/>
  <!-- head -->
  <path d="M150 360 Q120 250 200 215 Q230 200 270 205 Q330 215 345 290 Q350 340 320 372 Q300 392 250 392 Q180 392 150 360 Z" fill="#ffffff" stroke="#e9d9ff" stroke-width="6"/>
  <!-- horn -->
  <path d="M250 120 L232 212 L276 212 Z" fill="url(#horn)" stroke="#e8a200" stroke-width="4"/>
  <!-- mane -->
  <path d="M300 190 Q360 200 360 260 Q392 250 380 312 Q410 320 380 360 Q372 300 330 320 Q345 270 300 270 Z" fill="url(#mane)"/>
  <!-- ear -->
  <path d="M210 196 L196 158 L240 188 Z" fill="#ffffff" stroke="#e9d9ff" stroke-width="5"/>
  <!-- eye -->
  <circle cx="248" cy="278" r="15" fill="#3a2b5e"/>
  <circle cx="253" cy="273" r="5" fill="#ffffff"/>
  <!-- nostril -->
  <ellipse cx="170" cy="338" rx="7" ry="9" fill="#e9c3e0"/>
  <!-- sparkles -->
  <g fill="#fff7cf">
    <path d="M398 150 l8 18 18 8 -18 8 -8 18 -8 -18 -18 -8 18 -8 z"/>
    <path d="M120 180 l6 13 13 6 -13 6 -6 13 -6 -13 -13 -6 13 -6 z"/>
    <path d="M408 400 l6 13 13 6 -13 6 -6 13 -6 -13 -13 -6 13 -6 z"/>
  </g>
</svg>
